<svg width="150px" height="50px" version="1.1" viewBox="0 0 54.74 10.598" xmlns="http://www.w3.org/2000/svg">
 <g transform="translate(-126.34 -126.15)">
  <g transform="matrix(.26458 0 0 .26458 98.62 119.77)">
   <path d="m108.32 59.331v0.27c0 0.13 0.09 0.26 0.22 0.39 0.13 0.14 0.57 0.62 0.79 0.98 0.05 0.13 0.14 0.17 0.14 0.31 0 0.35-0.58 0.17-1.11 0.66l4.25-0.36c1.45-0.17 2.52-0.08 4.02-0.61 3.71-1.33 4.37-2.92 5.08-3.58 0.84-0.76 1.77-1.55 2.17-2.48 0.44-1.02 1.1-1.94 1.68-3.09 0.66-1.33 0.44-2.97 0.44-4.6 0-1.81-0.22-3.49-0.62-5.04-0.53-1.99-1.24-3.49-2.34-4.95-0.98-1.24-1.95-2.39-3.32-3.23-3.31-2.03-4.59-2.78-8.88-2.69-1.77 0.13-2.04 0.13-2.04 0.17 0 0.05 0.45 0.05 0.98 0.09 1.01 0.05 1.85 0.05 3.22 0.22-0.31 0.14-0.35 0.27-0.66 0.31-0.13 0.09-0.49 0.18-1.06 0.22l-0.35 0.05h-1.37c-0.84 0.04-1.33 0-1.82 0.04l-0.53 0.09-0.48 0.13c0 0.14 0.88 0.14 1.19 0.31 0.35 0.14 0.44 0.31 0.49 0.44 0 0.09-0.05 0.18-0.09 0.31l-0.58 0.05-2.16-0.09c-0.31 0-0.49 0.04-0.8 0.18l0.84 11.18c-0.13 0.49-0.04 0.88 0 1.28l0.4 5.57c0.22 2.7 0.53 5.3 0.84 7.96l1.02-0.14c0.13-0.08 0.31-0.22 0.44-0.35zm11.67-12.38c0 2.04 0.17 3.23-0.53 4.6-0.4 0.8-0.98 1.9-1.59 2.56-0.89 0.98-1.29 1.38-2.61 1.73-1.06 0.18-1.68 0.26-2.88 0.4l-0.13-1.06c-0.13-1.02-0.13-1.99-0.26-3.01l-0.71-9.41c0-0.71-0.09-1.51-0.13-2.26l-0.31-3.84c2.74 0 5.66 1.45 6.98 3 0.71 0.8 0.97 1.86 1.33 2.74 0.88 2.03 0.84 3.85 0.84 4.55zm26.03-8.88c-0.31 0-0.31 0.04-0.44 0.09v0.71c-0.66 1.19-1.64 2.25-2.3 3.35l-2.21 2.61-0.09 0.14-0.17-0.09-3.41-3.8-1.24-1.55-0.48-0.62c-0.05-0.75-0.13-1.55-0.13-2.39-0.4 0.27-0.18 1.28-0.18 1.95l-0.44-0.58c0 0.4 0.26 0.75 0.4 0.98v0.79c-0.23-0.22-0.54-0.26-0.67-0.79-0.04-0.23-0.09-0.4-0.09-0.71v-0.58c0-0.39-0.04-0.66-0.08-0.79-0.05-0.18-0.09-0.27-0.14-0.27-0.13 0-0.17 0.4-0.35 0.62-0.13 0.18-0.27 0.27-0.49 0.27l-0.53-0.05c-0.35 0-0.75-0.09-1.24-0.22l-0.66-0.04c-0.22 0-0.44 0.04-0.62 0.13 0.09 7.56 1.24 19.4 1.37 22.5 0.05-0.05 0.14-0.05 0.22-0.05l0.36 0.05c0.04 0 0.13-0.05 0.26-0.09 0.36-0.22 0.71-0.62 1.06-0.62 0.09 0 0.14 0 0.18 0.05 0.22 0.04 0.4 0.44 0.62 0.57 0.13 0.04 0.22 0.09 0.31 0.09s0.26-0.05 0.49-0.09c0.04-0.04 0.48-0.31 0.97-0.44 0.09-0.05 0.22-0.05 0.35-0.05 0.31 0 0.18 0.53 0.53 0.53l-0.4-5.52c-0.22-2.83-0.22-4.77-0.39-6.85l4.55 4.06 4.68-4.19c0.27 7.51 0.49 12.37 0.53 15.38l0.89-0.09c0.35-0.31 0.71-0.71 1.06-0.71l0.13 0.05c0.31 0.04 0.36 0.48 0.66 0.66 0.14 0.04 0.23 0.09 0.27 0.09 0.09 0 0.27 0.04 0.49-0.09s0.48-0.35 0.97-0.49c0.18-0.04 0.31-0.09 0.4-0.09 0.31 0 0.26 0.49 0.48 0.62 0-1.94-0.7-22.14-1.06-22.14 0.05 0-0.17 0.31-0.35 0.31-0.31 0-0.36-0.44-0.36-1.02v-1.86c0-0.17-0.04-0.26-0.08-0.26-0.36 0-3.54 0.53-3.63 0.53zm-10.25 2.43c0-0.4 0-0.62-0.05-1.02 0.27 0.31 0.4 0.58 0.8 1.11-0.31-0.04-0.44 0.04-0.75-0.09zm21.97-2.7v0.05c0.04 3.89-0.49 11-0.62 13.75-0.14 2.82-0.27 5.65-0.31 8.61 0.35-0.17 0.7 0.09 1.01-0.13 0.49-0.31 0.89-0.66 1.37-0.53 0.31 0.05 0.49 0.49 0.71 0.66 0.31 0.14 0.62 0.05 0.93 0 0.13 0 1.46-0.88 2.08 0.18 0.04-1.55 0-2.92 0-4.46 0-2.17 0.13-4.29 0.35-6.41 0-1.9 0.44-5.62 0.44-8.18 0-1.46-0.17-2.78-0.17-4.15-0.49 0.7-0.23 1.81-0.27 3.18-0.31-0.31-0.57-0.36-0.75-0.89-0.13-0.57 0.09-1.54-0.09-2.12-0.22-0.57-1.41 0.58-1.77 0.58-0.93 0-1.99-0.53-2.91-0.14zm21.03 5.26c5.4-0.53 5.4-0.66 5.4-0.79v-0.31c0-0.13 0-0.22-0.05-0.27-0.17-0.39-0.48-0.7-0.48-1.06v-0.22c0-0.22 0.39-0.4 0.44-0.62 0.04-0.04 0.04-0.17 0.04-0.35 0-0.22 0-0.35-0.04-0.44 0-0.05-0.22-0.53-0.35-1.02a0.815 0.815 0 0 1-0.09-0.4c0-0.31 0.35-0.17 0.48-0.48-1.37 0.04-5.04 0-6.85 0.17-1.81 0.05-3.45 0.05-5.17 0.05l-3.54 0.09c-0.39 0-0.79-0.22-1.19-0.05l0.13 0.05c0.71 0.17 1.29 0.22 2.17 0.35-0.22 0.22-0.27 0.49-0.66 0.62-0.09 0.04-0.22 0.04-0.36 0.04-0.22 0-0.35 0-0.44-0.04l-0.4-0.04c-0.13 0-0.22 0.04-0.35 0.04-0.13 0.04-0.22 0.13-0.22 0.18 0 0.13 0.26 0.22 0.44 0.35 0.09 0.13 0.13 0.31 0.13 0.44s-0.04 0.31-0.09 0.62c-0.04 0.49-0.17 0.84-0.3 1.33v0.17l-0.05 0.22c-0.04 0.23-0.09 0.4-0.09 0.53l0.09 0.36 0.4 0.04c3 0.22 4.51 0.36 3.89 0.36h1.63c0.05 7.69 0.14 14.85 0.27 17.46 0.04-0.05 0.18-0.05 0.31-0.05h0.26c0.14 0 0.27-0.04 0.36-0.09 0.35-0.22 0.7-0.57 1.1-0.57 0.36 0.04 0.58 0.4 0.75 0.53 0.05 0.04 0.18 0.04 0.31 0.04 0.22 0 0.36-0.04 0.53-0.09 0.14-0.04 0.49-0.53 0.98-0.53 0.35 0 0.44 0.45 0.88 0.53-0.04-1.37-0.09-2.56-0.22-3.8v-0.22a22.51 22.51 0 0 1-0.18-2.96v-4.33c0.13-0.35 0.09-0.62 0.09-0.93v-3.45c0-0.48 0-0.97 0.04-1.46zm24.09 13.62c-0.53-1.19-0.88-2.34-1.37-3.45-0.13-0.26-0.22-0.57-0.35-0.88 0.27-0.09 0.53-0.22 0.8-0.36 1.94-0.97 3.93-3.97 4.15-6.58-0.66-2.21-1.28-3.63-2.7-4.86-3.04-2.79-5.92-3.05-10.56-3.05-1.24 0-2.65 0.04-2.65 0.08 0.18 0.53 3.31 0.4 3.31 0.62s-0.53 0.22-0.88 0.22h-0.31c-0.22 0-0.53 0-0.75-0.04-0.53 0-1.15-0.04-1.46 0.09-0.26 0.04-0.4 0.09-0.4 0.13 0 0.13 0.58 0.18 0.89 0.35 0.22 0.14 0.31 0.27 0.31 0.4v0.36c0 0.04-0.14 0.08-0.45 0.08h-0.22c-0.57 0-1.19-0.22-1.85-0.22-0.22 0-0.45 0.05-0.67 0.14v20.5c0-0.04 0.05-0.04 0.14-0.04l0.39 0.04 0.31-0.08c0.31-0.22 0.58-0.58 0.93-0.58l0.22 0.05c0.18 0.04 0.44 0.39 0.62 0.53 0.13 0.04 0.22 0.08 0.31 0.08 0.13 0 0.27-0.04 0.49-0.08 0.22-0.14 0.84-0.45 1.32-0.45 0.31 0 0.22 0.36 0.49 0.49 0-0.66-0.04-1.33-0.18-2.03v-4.11c1.33 0 2.43-0.05 3.32-0.14 0.22 0.71 0.48 1.37 0.79 2.04 0.58 1.37 1.15 2.56 1.86 3.93 0.84 1.55 1.59 2.87 2.43 4.29 0.22-0.18 0.44-0.18 0.75-0.4 0.31-0.31 0.44-0.62 0.93-0.75l0.13-0.04c0.14 0 0.36 0.08 0.53 0.08 0.31-0.04 0.49-0.22 0.67-0.35 0.22-0.22 0.92-0.88 1.41-0.88 0.13 0 0.22 0.04 0.31 0.17l-1.37-2.12c-0.66-1.02-1.15-2.16-1.64-3.18zm-9.98-7.47 0.08-6.28-0.08-0.84c0.57 0.05 1.19 0 1.85 0.13 3.63 0.27 2.96 0.27 4.91 1.15 1.81 1.02 1.37 5.44-3.45 5.62-0.88 0.04-1.81 0.22-2.74 0.22zm33.06-8.36c-0.13-0.3-0.36-0.35-0.36-0.66 0.05-0.48 0.53-0.79 0.53-1.19 0-0.13-0.04-0.18-0.08-0.18-0.14 0-0.31 0.09-0.49 0.13-0.49 0-0.71-0.26-1.02-0.39-0.35-0.31-0.75-0.49-1.1-0.84-0.36-0.18-0.75-0.4-1.24-0.53-2.52 3.93-3.14 3.89-4.82 6.94-0.09-0.05-0.17-0.18-0.22-0.31-1.5-2.61-1.28-2.52-3.05-4.95l-1.46-1.73c-0.04 0.31 0.14 0.75 0.8 1.46l-0.53 0.13c-0.13 0-0.27-0.04-0.31-0.13-0.31-0.13-0.4-0.62-0.71-0.75-0.04-0.05-0.09-0.05-0.18-0.05-0.17 0-0.13 0.18-0.17 0.49-0.18 0.22-0.53 0.4-0.84 0.58-0.84 0.48-1.73 0.75-2.39 1.41 2.21 2.87 4.38 7.29 6.41 9.86l0.04 0.22c-0.04 3.53-0.08 1.5-0.08 4.55 0 0.71 0 1.46 0.04 2.17 0.04 1.06-0.09 2.07 0.04 3.09l0.93-0.09c0.53-0.31 0.84-0.48 1.2-0.53 0.39 0 0.48 0.31 0.79 0.44 0.05 0.05 0.13 0.05 0.22 0.05s0.14 0 0.18-0.05h0.27c0.08 0 0.13 0 0.17-0.04 0.18-0.13 1.06-0.35 1.46-0.35 0.31 0 0.27 0.39 0.58 0.39l-0.14-3.05c-0.13-0.48 0.05-0.88 0-1.28 0-2.34 0.09-3.71 0.09-5.79 0.05-0.04 1.86-4.33 5.48-8.4 0.58-0.62 0.89-1.46 1.15-2.03-0.49 0.09-0.84 0.75-1.19 1.41zm45.83-13.7c-0.35 0.71-0.61 1.28-0.97 2.04-0.13-0.36-0.35-0.54-0.22-1.2l0.53-1.24c0.22-0.48 0.44-0.84 0.49-1.19 0.13-0.79-0.22-0.09-0.71 0.18-0.49 0.31-0.71-0.09-1.1-0.27-0.36-0.22-0.76-0.57-1.11-0.88-0.4-0.36-0.84-0.53-1.28-0.49l-0.09 0.05a60.938 60.938 0 0 0-3.09 7.2c-1.02 2.48-1.77 4.95-2.44 7.47-0.66 2.48-1.19 5.04-1.67 7.52l-0.98-3.58c-0.31-1.02-0.48-1.95-0.79-2.88-0.22-1.01-0.4-1.94-0.53-2.83l-0.36-1.81c-0.04-0.57 0.09-1.33-0.13-1.77-0.04 0.49-0.13 0.89-0.13 1.28-0.05 0.45-0.05 0.93 0 1.46-0.13-0.13-0.31-0.13-0.44-0.26l0.57-3.58c-0.31 0.13-0.66-0.22-1.02-0.05-0.48 0.31-0.88 0.62-1.37 0.49-0.22-0.13-0.39-0.57-0.57-0.75-0.22-0.18-0.53-0.09-0.89-0.09-0.04 0-0.61 0.13-1.1 0.27-0.49 0.04-0.4-0.45-0.84-0.67-0.22 1.55-0.35 2.88-0.66 4.42-0.36 2.12-0.93 4.25-1.51 6.41-0.35 1.19-0.66 2.26-0.97 3.45-0.22-0.88-0.44-1.77-0.62-2.65-0.66-2.26-1.23-4.38-1.59-6.63-0.13-0.75-0.26-1.42-0.44-2.08-0.13-0.66-0.18-1.59-0.31-2.08l-0.09 0.62c-0.09 0.49 0.13 1.95 0.18 2.61-0.31-0.18-0.58-0.22-0.8-0.75-0.13-0.31-0.09-0.67-0.22-1.06 0-0.45-0.04-0.8-0.13-1.06-0.31-0.67-0.35 0.04-0.53 0.39-0.31 0.49-0.71 0.27-1.06 0.31-0.49 0.14-0.97-0.04-1.46-0.09-0.53-0.04-0.97 0.05-1.37 0.27v0.04c0.53 4.47 1.37 8.84 2.56 13.04l2.12 7.52c0.76 2.96 1.33 5.79 1.82 8.66 0.31-0.22 0.57 0 0.88-0.22 0.49-0.31 0.75-0.84 1.28-0.8 0.22 0.05 0.49 0.4 0.67 0.53 0.35 0.14 0.57 0.05 0.88-0.08 0.13-0.05 0.57-0.45 0.97-0.58 0.49-0.22 0.44 0.36 1.02 0.36l-0.22-1.77c0-1.9 0.26-3.8 0.62-5.79 0.35-2.08 1.23-8.75 1.46-9.46 0.66 1.94 1.5 5.83 2.21 7.78l1.37 3.8c0.39 1.24 0.84 2.52 1.19 3.76 0.31-0.23 0.71-0.09 0.93-0.4 0.35-0.36 0.62-0.84 1.1-0.89 0.31 0 0.49 0.27 0.8 0.31h0.13c0.31 0.18 0.49 0.09 0.8 0.05 0.13-0.05 0.62-0.36 1.1-0.49 0.49-0.13 0.31 0.53 0.89 0.71 0.04-1.9 0.17-3.63 0.3-5.53 0.18-2.69 0.67-5.26 1.2-7.91 0.57-2.83 1.28-5.48 2.12-8.18 0.84-2.6 1.59-5.12 2.61-7.6 0.35-0.84 0.62-1.63 0.93-2.39l1.01-2.34c-0.26 0.22-0.62 0.71-0.93 1.37zm13.75 27.67c-2.83-0.4-5.97-0.75-6.98-0.75l0.04-1.41 0.05-0.8c0.75-0.04 1.54-0.09 2.25-0.22l4.77-0.4-0.04-0.88c-0.13-0.36-0.31-0.71-0.31-1.11s0.18-0.48 0.22-0.79v-0.22c0-0.18 0-0.4-0.04-0.58 0-0.13-0.27-1.02-0.27-1.55 0-0.22 0.05-0.35 0.13-0.35-0.53 0.05-1.1 0.09-1.76 0.22l-3.98 0.18-0.62 0.04 0.18-2.65c0.39 0 0.79 0.04 1.19 0.09 1.72 0 4.07 0.31 5.17 0.44l1.81 0.09c-0.09-0.4-0.79-0.31-1.32-0.44 0.13-0.22 0.13-0.53 0.44-0.58l0.66 0.05c0.13 0 0.22 0 0.27-0.05 0.09-0.04 0.13-0.09 0.13-0.13 0-0.13-0.18-0.22-0.22-0.35-0.05-0.09-0.05-0.22-0.05-0.36 0-0.22 0.05-0.44 0.09-0.75 0.14-0.4 0.18-0.79 0.31-1.28 0.09-0.35 0.14-0.71 0.14-1.06v-0.22c-1.02-0.22-1.95-0.36-2.97-0.53-1.23-0.18-2.83-0.31-4.28-0.31h-2.52c0-0.4 0-0.84-0.14-1.15-0.04-0.18-0.13-0.27-0.17-0.27-0.14 0-0.14 0.45-0.31 0.67-0.13 0.17-0.27 0.26-0.44 0.26l-0.49-0.04h-0.18c-0.35 0-0.66-0.09-1.06-0.13l-0.4-0.05c-0.31 0-0.57 0.05-0.79 0.18 0.04 1.19 0.09 2.25 0.09 3.45v2.43c0 1.9-0.09 0.92-0.18 2.87l-0.4 9.06c0 1.59 0.05 3.18 0.09 4.77 0.04-0.04 0.13-0.04 0.22-0.04l0.36 0.04c0.04 0 0.13-0.04 0.26-0.08 0.35-0.31 0.62-0.67 1.02-0.67l0.75 0.62c0.13 0.05 0.22 0.09 0.26 0.09 0.14 0 0.31-0.09 0.45-0.13 0.13 0 0.48-0.27 0.97-0.4l0.35-0.09 0.44-0.09h0.4c0.66 0 3.23 0.4 6.72 1.02 0.75 0.22 1.41 0.22 2.12 0.4 0.05-0.4-0.88-0.49-1.55-0.71 0.23-0.18 0.31-0.4 0.62-0.53 0.31 0 0.58 0.22 0.89 0.22 0.09 0 0.13 0 0.17-0.04 0.14-0.05 0.18-0.09 0.18-0.14 0-0.13-0.13-0.22-0.26-0.39l-0.05-0.22c0-0.31 0.13-0.58 0.18-0.8 0.13-0.49 0.31-0.84 0.48-1.33 0.14-0.35 0.18-0.7 0.18-1.1v-0.18c-1.1-0.31-2.16-0.53-3.27-0.84zm-0.18-9.06h0.05zm26.08 5.84c-0.13-0.58-0.62-1.15-1.06-1.82-0.4-0.48-0.97-1.01-1.5-1.46-1.02-0.61-1.37-1.37-3.09-1.37 0.13-0.04 0.13-0.08 0.26-0.17 0.44-0.27 0.8-0.49 1.11-0.89 0.17-0.17 0.44-0.31 0.53-0.53l0.7-0.88 0.05-0.27c0.13-0.13 0.13-0.35 0.17-0.48 0.05-0.27 0.09-0.49 0.09-0.71 0-0.13 0-1.19-0.04-1.24-0.05-0.31-0.4-0.93-0.58-1.28-0.22-0.35-0.44-0.62-0.7-0.88-0.05-0.05-0.14-0.14-0.22-0.14-0.09-0.13-0.18-0.17-0.23-0.17-0.08-0.14-0.26-0.18-0.35-0.31-0.4-0.13-0.53-0.22-0.79-0.44l-1.46-0.49c-0.49-0.13-1.02-0.18-1.46-0.27-0.93-0.13-1.77-0.22-2.7-0.26h-0.48c-0.84 0-1.2-0.09-1.55-0.09l-2.83 0.09c0.57 0.26 2.83 0.09 3.67 0.13-0.27 0.13-0.27 0.31-0.71 0.4h-0.57c0-0.04 0-0.09-0.09-0.09s-0.09 0.05-0.13 0.09c-0.23 0-0.49 0.04-0.71 0.09-1.37 0.04-1.46 0.09-1.46 0.13 0 0.09 1.55 0.13 1.68 0.22h0.04c0.05 0.05 0.05 0.05 0.05 0.09l-1.81 0.13c-0.31-0.04-0.27 0-0.58-0.13-0.22-0.04-0.44-0.09-0.66-0.09-0.18 0-0.27 0-0.36 0.05-0.44 3-0.7 5.7-0.79 8.57-0.05 1.28-0.05 2.61-0.05 3.85v1.59c0 2.16 0 4.15 0.05 6.23 0.04-0.04 0.09-0.04 0.13-0.04 0.13 0 0.22 0.04 0.35 0.04 0.09 0 0.14 0 0.23-0.09 0.17-0.09 0.17-0.09 0.3-0.22l0.09 0.04c0 0.09 0.09 0.23 0.09 0.31 0 0.09 0.36 0.4 0.44 0.67 0.05 0.09 0.09 0.17 0.09 0.22 0 0.04-0.04 0.09-0.09 0.18-0.08 0.08-0.26 0.13-0.48 0.13h8.17c0.58-0.09 1.29-0.09 1.95-0.22 0.66-0.09 1.33-0.14 2.12-0.36 0.62-0.13 1.37-0.39 2.08-0.84 0.35-0.22 0.66-0.39 1.06-0.66 0.26-0.22 0.57-0.49 0.84-0.8 0.26-0.3 0.44-0.66 0.66-0.97 0.18-0.31 0.36-0.66 0.44-0.93 0 0.14 0.09 0 0.09-0.39l0.18-0.62c0.13-1.02 0.09-2.04-0.18-2.65zm-12.77-9.24v-0.27h0.79c0.71 0.13 1.37 0.22 1.95 0.4 0.35 0.09 0.62 0.13 0.88 0.22 0.27 0.13 1.33 0.58 1.51 0.75-0.23 0.49-0.8 0.8-1.51 1.06-0.44 0.18-2.07 0.71-2.47 0.89l-1.5 0.44c0.04-1.24 0.22-2.3 0.35-3.49zm6.98 11.98c-0.22 0.26-0.53 0.48-0.88 0.61-0.44 0.18-0.89 0.31-1.37 0.36-0.58 0.13-1.28 0.22-1.99 0.26-0.66 0.05-1.42 0.05-2.21 0.05h-0.97v-2.21c-0.05-0.31-0.09-0.62-0.09-0.93 0-0.04 0-3.63 0.13-5.44 1.02 0.14 1.11 1.15 1.11 1.24 0 0.18-0.18 0.35-0.23 0.53 0 0.18 0.09 0.31 0.23 0.49 0 0 0.31 0.26 0.53 0.57 0.26 0.27-0.18 0.18-0.18 0.58 0.53-0.14 1.15-0.27 1.72-0.53 0 0.08 0.05 0.22 0.09 0.31 3.36-0.23 3.36 0.83 4.38 2.21 0.53 0.75 0.4 1.37-0.27 1.9z"/>
  </g>
 </g>
</svg>
